<svg width="49" height="49" viewBox="0 0 49 49" fill="none" xmlns="http://www.w3.org/2000/svg">
<g clip-path="url(#clip0_1_378)">
<path d="M24.4999 0.230103C19.7888 0.230103 15.1834 1.62712 11.2662 4.2445C7.34908 6.86187 4.29601 10.582 2.49313 14.9345C0.690253 19.2871 0.218537 24.0765 1.13764 28.6971C2.05674 33.3177 4.32537 37.562 7.65666 40.8933C10.9879 44.2246 15.2322 46.4933 19.8529 47.4124C24.4735 48.3316 29.2629 47.8597 33.6154 46.0569C37.968 44.2541 41.6881 41.201 44.3055 37.2837C46.9229 33.3666 48.3199 28.7612 48.3199 24.0501C48.3136 17.7345 45.8019 11.6795 41.3362 7.21384C36.8704 2.7481 30.8154 0.236456 24.4999 0.230103ZM24.4999 44.8701C20.3821 44.8701 16.3568 43.649 12.9329 41.3613C9.50914 39.0735 6.84059 35.8219 5.26477 32.0175C3.68896 28.2132 3.27665 24.027 4.07999 19.9883C4.88334 15.9496 6.86625 12.2398 9.77798 9.32814C12.6897 6.41641 16.3994 4.4335 20.4381 3.63015C24.4768 2.82681 28.663 3.23912 32.4674 4.81493C36.2717 6.39075 39.5234 9.0593 41.8111 12.4831C44.0988 15.9069 45.3199 19.9322 45.3199 24.0501C45.3136 29.5699 43.118 34.8619 39.2149 38.765C35.3117 42.6681 30.0198 44.8637 24.4999 44.8701Z" fill="black"/>
<path d="M34.376 14.9782C32.624 15.2542 30.872 15.4462 29.108 15.5782C29.7919 14.6406 30.1616 13.5107 30.164 12.3502C30.1989 11.598 30.081 10.8466 29.8172 10.1413C29.5534 9.43603 29.1494 8.7916 28.6295 8.24696C28.1096 7.70233 27.4846 7.2688 26.7923 6.9726C26.1001 6.6764 25.3549 6.52368 24.602 6.52368C23.849 6.52368 23.1039 6.6764 22.4116 6.9726C21.7194 7.2688 21.0944 7.70233 20.5745 8.24696C20.0546 8.7916 19.6505 9.43603 19.3867 10.1413C19.123 10.8466 19.005 11.598 19.04 12.3502C19.0423 13.5107 19.412 14.6406 20.096 15.5782C18.332 15.4462 16.568 15.2542 14.816 14.9782C14.095 14.838 13.3484 14.9218 12.6764 15.2182C12.0044 15.5146 11.4391 16.0095 11.0564 16.6364C10.6737 17.2633 10.492 17.9922 10.5355 18.7254C10.579 19.4586 10.8458 20.1609 11.3 20.7381C11.5814 21.1307 11.9388 21.4626 12.3512 21.7141C12.7635 21.9656 13.2222 22.1316 13.7 22.2021C15.704 22.5261 17.78 22.7542 19.892 22.8982V24.7582L13.7 34.4902C13.44 34.8959 13.2624 35.349 13.1775 35.8234C13.0925 36.2978 13.1019 36.7842 13.2049 37.255C13.4131 38.2058 13.9905 39.035 14.81 39.5601C15.6295 40.0853 16.6241 40.2633 17.5749 40.0552C18.0457 39.9521 18.4915 39.7573 18.887 39.4819C19.2826 39.2065 19.62 38.8559 19.88 38.4501L24.5 31.1061L29.144 38.4501C29.4018 38.8591 29.7381 39.2129 30.1334 39.4912C30.5288 39.7695 30.9753 39.9666 31.4473 40.0714C31.9193 40.1761 32.4073 40.1862 32.8832 40.1013C33.3592 40.0163 33.8135 39.8379 34.2201 39.5764C34.6267 39.3148 34.9775 38.9753 35.2521 38.5775C35.5267 38.1796 35.7198 37.7313 35.8202 37.2584C35.9207 36.7854 35.9264 36.2973 35.8371 35.8222C35.7478 35.3471 35.5652 34.8943 35.3 34.4902L29.3 25.0461V22.8502C31.412 22.7062 33.488 22.4782 35.492 22.1542C36.4468 21.995 37.2992 21.4631 37.8618 20.6755C38.4244 19.8878 38.6511 18.9089 38.492 17.9542C38.3328 16.9994 37.8009 16.1469 37.0133 15.5843C36.2256 15.0217 35.2468 14.795 34.292 14.9542L34.376 14.9782ZM24.596 9.7821C25.1067 9.76778 25.6101 9.90612 26.0418 10.1795C26.4734 10.4528 26.8138 10.8487 27.0192 11.3165C27.2247 11.7843 27.2859 12.3028 27.1951 12.8055C27.1043 13.3083 26.8656 13.7726 26.5095 14.139C26.1533 14.5054 25.696 14.7572 25.196 14.8623C24.696 14.9673 24.176 14.9208 23.7026 14.7288C23.2291 14.5367 22.8238 14.2078 22.5383 13.7841C22.2528 13.3603 22.1002 12.8611 22.1 12.3502C22.0997 11.6814 22.3604 11.0389 22.8265 10.5593C23.2926 10.0797 23.9275 9.80085 24.596 9.7821ZM35.06 19.2502C32.6431 19.6293 30.2076 19.8777 27.764 19.9942C27.3788 20.0127 27.0155 20.1788 26.7496 20.4582C26.4836 20.7375 26.3355 21.1085 26.336 21.4942V25.4902C26.3379 25.7754 26.4211 26.0544 26.576 26.2942L32.792 36.0501C32.8386 36.1234 32.8703 36.2051 32.8852 36.2906C32.9002 36.3761 32.8981 36.4638 32.8792 36.5485C32.8602 36.6332 32.8248 36.7133 32.7748 36.7843C32.7248 36.8553 32.6613 36.9157 32.588 36.9621C32.4392 37.0531 32.2609 37.0827 32.0907 37.0446C31.9205 37.0066 31.7718 36.9038 31.676 36.7581L25.772 27.4461C25.6435 27.2414 25.4671 27.071 25.258 26.9498C25.049 26.8285 24.8135 26.76 24.572 26.7501C24.3186 26.7503 24.0694 26.8141 23.8471 26.9356C23.6248 27.0572 23.4367 27.2329 23.3 27.4461L17.3 36.8061C17.259 36.8896 17.2008 36.9634 17.1293 37.0228C17.0577 37.0822 16.9744 37.1258 16.8849 37.1508C16.7953 37.1758 16.7015 37.1815 16.6096 37.1677C16.5176 37.1539 16.4296 37.1208 16.3514 37.0706C16.2731 37.0204 16.2063 36.9542 16.1554 36.8765C16.1045 36.7987 16.0706 36.711 16.0559 36.6192C16.0412 36.5274 16.0461 36.4335 16.0703 36.3437C16.0944 36.2539 16.1372 36.1702 16.196 36.0982L22.592 26.0061C22.7487 25.7673 22.8321 25.4878 22.832 25.2021V21.4822C22.8324 21.0965 22.6843 20.7255 22.4184 20.4462C22.1525 20.1668 21.7892 20.0007 21.404 19.9822C18.9726 19.869 16.549 19.6246 14.144 19.2502C14.0577 19.2381 13.9749 19.2084 13.9006 19.163C13.8263 19.1176 13.7621 19.0574 13.712 18.9862C13.6316 18.8819 13.5849 18.7557 13.578 18.6243C13.5711 18.4929 13.6044 18.3625 13.6734 18.2504C13.7425 18.1384 13.844 18.05 13.9645 17.9971C14.085 17.9442 14.2188 17.9292 14.348 17.9542C21.1373 19.0342 28.0547 19.0342 34.844 17.9542C35.0167 17.9292 35.1925 17.9712 35.3352 18.0716C35.478 18.172 35.577 18.3231 35.612 18.4942C35.6363 18.6672 35.5923 18.8429 35.4893 18.9841C35.3862 19.1252 35.2322 19.2206 35.06 19.2502Z" fill="black"/>
</g>
<defs>
<clipPath id="clip0_1_378">
<rect width="48" height="48" fill="white" transform="translate(0.5 0.0500488)"/>
</clipPath>
</defs>
</svg>
