<svg width="49" height="49" viewBox="0 0 49 49" fill="none" xmlns="http://www.w3.org/2000/svg">
<g clip-path="url(#clip0_1_329)">
<path fill-rule="evenodd" clip-rule="evenodd" d="M11.686 4.05005C12.6091 4.05005 13.3574 4.79837 13.3574 5.72148V9.06434H16.7C17.6231 9.06434 18.3714 9.81266 18.3714 10.7358C18.3714 11.6589 17.6231 12.4072 16.7 12.4072H13.3574V15.7501C13.3574 16.6732 12.6091 17.4215 11.686 17.4215C10.7629 17.4215 10.0146 16.6732 10.0146 15.7501V12.4072H6.67143C5.74832 12.4072 5 11.6589 5 10.7358C5 9.81266 5.74832 9.06434 6.67143 9.06434H10.0146V5.72148C10.0146 4.79837 10.7629 4.05005 11.686 4.05005ZM23.386 5.16434C22.4629 5.16434 21.7146 5.91266 21.7146 6.83577C21.7146 7.75887 22.4629 8.5072 23.386 8.5072H35.6431C38.4124 8.5072 40.6574 10.7522 40.6574 13.5215V25.7787H30.0714C28.2252 25.7787 26.7286 27.2753 26.7286 29.1215V39.7072H14.4717C11.7024 39.7072 9.45742 37.4623 9.45742 34.693V22.4358C9.45742 21.5127 8.70909 20.7644 7.78599 20.7644C6.86288 20.7644 6.11456 21.5127 6.11456 22.4358V34.693C6.11456 39.3085 9.85618 43.0501 14.4717 43.0501H27.2536C28.879 43.0501 30.4378 42.4044 31.5871 41.2551L42.2053 30.637C43.3546 29.4876 44.0003 27.9288 44.0003 26.3034V13.5215C44.0003 8.90596 40.2587 5.16434 35.6431 5.16434H23.386ZM30.0714 38.0433L38.9932 29.1215H30.0714V38.0433Z" fill="#1D1C1D"/>
</g>
<defs>
<clipPath id="clip0_1_329">
<rect width="48" height="48" fill="white" transform="translate(0.5 0.0500488)"/>
</clipPath>
</defs>
</svg>
