<svg width="49" height="49" viewBox="0 0 49 49" fill="none" xmlns="http://www.w3.org/2000/svg">
<path d="M42.5001 0.950209H6.50021C5.82889 0.948631 5.16383 1.0793 4.54301 1.33474C3.92219 1.59019 3.35776 1.96541 2.88196 2.43899C2.40614 2.91257 2.02828 3.47522 1.76992 4.09484C1.51156 4.71446 1.37778 5.37889 1.3762 6.05021V42.0502C1.36984 42.7259 1.49785 43.3963 1.7528 44.0222C2.00776 44.648 2.38456 45.2171 2.86132 45.6961C3.33808 46.175 3.90529 46.5546 4.52998 46.8124C5.15467 47.0702 5.82439 47.2014 6.50021 47.1982H42.5001C43.176 47.2014 43.8458 47.0702 44.4704 46.8124C45.0951 46.5546 45.6623 46.175 46.1391 45.6961C46.6158 45.2171 46.9926 44.648 47.2477 44.0222C47.5025 43.3963 47.6306 42.7259 47.6241 42.0502V6.05021C47.6227 5.37889 47.4888 4.71446 47.2305 4.09484C46.9721 3.47522 46.5942 2.91257 46.1185 2.43899C45.6427 1.96541 45.0782 1.59019 44.4573 1.33474C43.8365 1.0793 43.1715 0.948631 42.5001 0.950209ZM44.6241 42.0502C44.6306 42.332 44.5803 42.6122 44.4761 42.8741C44.372 43.1362 44.2161 43.3744 44.018 43.5749C43.8198 43.7753 43.5833 43.9339 43.3224 44.041C43.0617 44.1479 42.782 44.2015 42.5001 44.1982H6.50021C6.21833 44.2015 5.93867 44.1479 5.67791 44.041C5.41715 43.9339 5.18062 43.7753 4.98241 43.5749C4.7842 43.3744 4.62838 43.1362 4.52423 42.8741C4.42009 42.6122 4.36975 42.332 4.37621 42.0502V6.05021C4.37618 5.7724 4.43129 5.49736 4.53832 5.24099C4.64536 4.98463 4.80218 4.75205 4.99975 4.55674C5.1973 4.36141 5.43164 4.20724 5.68919 4.10312C5.94676 3.99901 6.22241 3.94703 6.50021 3.95021H42.5001C42.778 3.94703 43.0536 3.99901 43.3112 4.10312C43.5687 4.20724 43.8031 4.36141 44.0006 4.55674C44.1982 4.75205 44.355 4.98463 44.4622 5.24099C44.5691 5.49736 44.6241 5.7724 44.6241 6.05021V42.0502Z" fill="#1D1C1D"/>
<path d="M35.384 16.6461H31.7L32.216 13.166C32.2444 12.9706 32.2339 12.7715 32.1854 12.5801C32.1368 12.3887 32.051 12.2088 31.9328 12.0505C31.6943 11.731 31.3387 11.5193 30.944 11.462C30.5494 11.4047 30.1481 11.5065 29.8285 11.7451C29.509 11.9836 29.2972 12.3393 29.24 12.734L28.664 16.6461H22.976L23.48 13.166C23.5207 12.966 23.5201 12.7599 23.4784 12.5602C23.4365 12.3604 23.3545 12.1713 23.2372 12.0044C23.1199 11.8375 22.9697 11.6963 22.7959 11.5894C22.622 11.4825 22.4282 11.4122 22.2263 11.3827C22.0244 11.3533 21.8186 11.3654 21.6217 11.4182C21.4246 11.4711 21.2404 11.5636 21.0802 11.6901C20.9201 11.8165 20.7875 11.9743 20.6905 12.1538C20.5934 12.3333 20.534 12.5307 20.516 12.734L19.94 16.6461H15.0439C14.6461 16.6461 14.2646 16.804 13.9833 17.0853C13.702 17.3667 13.5439 17.7481 13.5439 18.1461C13.5439 18.5439 13.702 18.9253 13.9833 19.2067C14.2646 19.488 14.6461 19.6461 15.0439 19.6461H19.508L18.428 27.0381H13.6279C13.2301 27.0381 12.8486 27.196 12.5673 27.4773C12.286 27.7587 12.1279 28.1401 12.1279 28.5381C12.1279 28.9359 12.286 29.3173 12.5673 29.5987C12.8486 29.88 13.2301 30.0381 13.6279 30.0381H17.996L17.3 34.9821C17.2402 35.3662 17.3318 35.7586 17.5556 36.0765C17.7796 36.3943 18.1181 36.6129 18.5 36.6861H18.728C19.087 36.684 19.4333 36.5533 19.7041 36.3177C19.975 36.0822 20.1523 35.7573 20.204 35.4021L21.02 30.0501H26.684L25.964 34.9941C25.9055 35.3869 26.0053 35.7871 26.2415 36.1066C26.4778 36.4261 26.831 36.6388 27.224 36.6981H27.452C27.811 36.696 28.1573 36.5653 28.4281 36.3297C28.699 36.0942 28.8763 35.7693 28.928 35.4141L29.72 30.0501H33.956C34.3538 30.0501 34.7353 29.892 35.0167 29.6107C35.2979 29.3293 35.456 28.9479 35.456 28.5501C35.456 28.1521 35.2979 27.7707 35.0167 27.4893C34.7353 27.208 34.3538 27.0501 33.956 27.0501H30.152L31.244 19.6581H35.384C35.7818 19.6581 36.1633 19.5 36.4447 19.2187C36.7259 18.9373 36.884 18.5559 36.884 18.1581C36.884 17.7601 36.7259 17.3787 36.4447 17.0973C36.1633 16.816 35.7818 16.6581 35.384 16.6581V16.6461ZM27.128 27.0381H21.452L22.532 19.6461H28.208L27.128 27.0381Z" fill="#1D1C1D"/>
</svg>
