<svg width="49" height="49" viewBox="0 0 49 49" fill="none" xmlns="http://www.w3.org/2000/svg">
<g clip-path="url(#clip0_1_365)">
<path d="M45.8842 10.85C45.3686 10.5564 44.7854 10.4021 44.1922 10.4021C43.5989 10.4021 43.0157 10.5564 42.5002 10.85L35.3002 15.05V14.138C35.3002 12.7854 34.7629 11.4882 33.8065 10.5317C32.8499 9.57529 31.5527 9.03796 30.2002 9.03796H6.50015C5.14754 9.03796 3.85034 9.57529 2.89389 10.5317C1.93747 11.4882 1.40015 12.7854 1.40015 14.138V35.3899C1.40015 36.0597 1.53206 36.723 1.78836 37.3417C2.04465 37.9605 2.42033 38.5227 2.89389 38.9962C3.36747 39.4698 3.9297 39.8455 4.54845 40.1017C5.16722 40.3581 5.8304 40.4899 6.50015 40.4899H30.1762C30.8479 40.4932 31.5137 40.3636 32.1352 40.1086C32.7568 39.8538 33.3218 39.4786 33.7979 39.0048C34.274 38.5309 34.6519 37.9675 34.9097 37.3473C35.1674 36.7269 35.3002 36.0618 35.3002 35.3899V34.4779L42.5002 38.6299C43.0219 38.931 43.6139 39.0883 44.2162 39.0859C44.8148 39.0897 45.4034 38.9322 45.9202 38.6299C46.444 38.3332 46.8791 37.9021 47.1808 37.3812C47.4824 36.8601 47.6396 36.268 47.6362 35.6659V13.862C47.6447 13.2482 47.4863 12.6437 47.1776 12.1131C46.8691 11.5826 46.4219 11.1459 45.8842 10.85ZM32.2762 16.7299V35.3899C32.2762 35.9469 32.0549 36.481 31.661 36.8749C31.2673 37.2687 30.7331 37.4899 30.1762 37.4899H6.50015C5.94318 37.4899 5.40905 37.2687 5.01522 36.8749C4.6214 36.481 4.40015 35.9469 4.40015 35.3899V14.138C4.40331 13.5831 4.62596 13.052 5.01945 12.6608C5.41293 12.2696 5.94527 12.05 6.50015 12.05H30.1762C30.7331 12.05 31.2673 12.2712 31.661 12.665C32.0549 13.0589 32.2762 13.593 32.2762 14.15V16.7299ZM44.6002 35.6659C44.6015 35.7402 44.582 35.8134 44.5438 35.877C44.5057 35.9406 44.4503 35.9923 44.3842 36.0259C44.3224 36.0682 44.2492 36.0909 44.1742 36.0909C44.0992 36.0909 44.026 36.0682 43.9642 36.0259L35.3002 31.0099V18.5179L43.9882 13.502C44.05 13.4597 44.1232 13.437 44.1982 13.437C44.2732 13.437 44.3464 13.4597 44.4082 13.502C44.4743 13.5357 44.5297 13.5873 44.5678 13.651C44.606 13.7146 44.6255 13.7877 44.6242 13.862L44.6002 35.6659Z" fill="#1D1C1D"/>
<path d="M26.1082 24.302C25.742 24.1745 25.3404 24.1963 24.9902 24.3624C24.6398 24.5286 24.3691 24.8259 24.2361 25.1901C23.7956 26.3883 22.9996 27.4231 21.9545 28.1563C20.9096 28.8895 19.6655 29.2858 18.389 29.2924C17.1125 29.2989 15.8644 28.9153 14.8119 28.1928C13.7595 27.4704 12.9529 26.4436 12.5001 25.25C12.3474 24.9131 12.0738 24.6458 11.7334 24.5011C11.393 24.3563 11.0106 24.3448 10.6621 24.4685C10.3135 24.5923 10.024 24.8424 9.85109 25.1694C9.67814 25.4964 9.63427 25.8763 9.72814 26.234C10.3682 28.0192 11.544 29.5632 13.0948 30.6546C14.6456 31.7461 16.4957 32.3319 18.3921 32.3319C20.2886 32.3319 22.1387 31.7461 23.6895 30.6546C25.2402 29.5632 26.4161 28.0192 27.0562 26.234C27.1292 26.0455 27.1623 25.8439 27.1535 25.642C27.1448 25.44 27.0942 25.2419 27.0053 25.0604C26.9162 24.8789 26.7905 24.7179 26.6362 24.5874C26.4817 24.4569 26.302 24.3596 26.1082 24.302Z" fill="#1D1C1D"/>
<path d="M15.344 23.438C15.6924 23.4403 16.0337 23.3395 16.3247 23.1481C16.6158 22.9568 16.8438 22.6835 16.9799 22.3628C17.1159 22.0421 17.1539 21.6883 17.0891 21.346C17.0243 21.0037 16.8596 20.6882 16.6158 20.4394C16.3719 20.1905 16.0599 20.0195 15.7191 19.9478C15.3782 19.8761 15.0237 19.9069 14.7003 20.0363C14.3769 20.1658 14.099 20.3882 13.9018 20.6753C13.7046 20.9626 13.5968 21.3016 13.592 21.65C13.5873 21.8831 13.629 22.1147 13.7149 22.3315C13.8008 22.5482 13.9291 22.7456 14.0923 22.9121C14.2555 23.0786 14.4502 23.2109 14.6652 23.3012C14.8801 23.3915 15.1109 23.438 15.344 23.438Z" fill="#1D1C1D"/>
<path d="M21.0558 23.438C21.4041 23.4403 21.7454 23.3395 22.0365 23.1481C22.3277 22.9568 22.5555 22.6835 22.6916 22.3628C22.8276 22.0421 22.8657 21.6883 22.8009 21.346C22.7361 21.0037 22.5714 20.6882 22.3277 20.4394C22.0838 20.1905 21.7718 20.0195 21.4308 19.9478C21.09 19.8761 20.7354 19.9069 20.412 20.0363C20.0886 20.1658 19.8108 20.3882 19.6136 20.6753C19.4163 20.9626 19.3086 21.3016 19.3038 21.65C19.299 21.8831 19.3407 22.1147 19.4267 22.3315C19.5126 22.5482 19.6409 22.7456 19.8041 22.9121C19.9673 23.0786 20.162 23.2109 20.3769 23.3012C20.5919 23.3915 20.8227 23.438 21.0558 23.438Z" fill="#1D1C1D"/>
</g>
<defs>
<clipPath id="clip0_1_365">
<rect width="48" height="48" fill="white" transform="translate(0.5 0.0500488)"/>
</clipPath>
</defs>
</svg>
