<svg width="40" height="48" viewBox="0 0 40 48" fill="none" xmlns="http://www.w3.org/2000/svg">
<path d="M34.3997 4.596H21.1157L22.2557 3.396C22.5104 3.10951 22.6457 2.73639 22.634 2.35326C22.6222 1.97011 22.4642 1.60603 22.1923 1.33575C21.9205 1.06547 21.5555 0.909511 21.1724 0.899887C20.7892 0.890263 20.4169 1.02771 20.1317 1.284L16.5317 4.884C16.3921 5.02333 16.2812 5.18886 16.2056 5.37109C16.13 5.55333 16.091 5.7487 16.091 5.946C16.091 6.14331 16.13 6.33867 16.2056 6.52091C16.2812 6.70314 16.3921 6.86866 16.5317 7.008L20.1317 10.608C20.2715 10.749 20.4379 10.8609 20.6213 10.9371C20.8046 11.0133 21.0013 11.0524 21.1997 11.052C21.3967 11.0535 21.5918 11.0149 21.7735 10.9385C21.955 10.8622 22.1191 10.7498 22.2557 10.608C22.3951 10.4697 22.5056 10.3052 22.5811 10.1239C22.6565 9.94271 22.6954 9.74832 22.6954 9.552C22.6954 9.35568 22.6565 9.16131 22.5811 8.98007C22.5056 8.79884 22.3951 8.63432 22.2557 8.496L21.3077 7.548H34.3997C34.9558 7.55115 35.4881 7.77342 35.8813 8.16655C36.2744 8.5597 36.4966 9.09202 36.4997 9.648V38.4C36.4966 38.9561 36.2744 39.4883 35.8813 39.8814C35.4881 40.2746 34.9558 40.4968 34.3997 40.5H28.3997C28.0019 40.5 27.6205 40.6581 27.3391 40.9394C27.0578 41.2206 26.8997 41.6022 26.8997 42C26.8997 42.3978 27.0578 42.7794 27.3391 43.0606C27.6205 43.3419 28.0019 43.5 28.3997 43.5H34.3997C35.7514 43.4968 37.0468 42.9585 38.0026 42.0027C38.9582 41.0471 39.4966 39.7517 39.4997 38.4V9.696C39.4966 8.34437 38.9582 7.04901 38.0026 6.09326C37.0468 5.13752 35.7514 4.59916 34.3997 4.596Z" fill="#1D1C1D"/>
<path d="M19.832 37.344C19.547 37.0877 19.1745 36.9503 18.7914 36.9599C18.4082 36.9695 18.0432 37.1255 17.7715 37.3958C17.4996 37.6661 17.3415 38.0301 17.3298 38.4132C17.318 38.7963 17.4533 39.1695 17.708 39.456L18.752 40.5H5.6C5.04401 40.4969 4.5117 40.2746 4.11856 39.8814C3.7254 39.4883 3.50315 38.9559 3.5 38.4V9.69596C3.50315 9.13997 3.7254 8.60765 4.11856 8.21452C4.5117 7.82137 5.04401 7.59911 5.6 7.59596H11.6C11.9978 7.59596 12.3794 7.43792 12.6606 7.15661C12.9419 6.87532 13.1 6.49378 13.1 6.09595C13.1 5.69813 12.9419 5.31659 12.6606 5.0353C12.3794 4.75399 11.9978 4.59595 11.6 4.59595H5.6C4.24836 4.59913 2.95301 5.13746 1.99725 6.09322C1.0415 7.04896 0.503165 8.34433 0.5 9.69596V38.4C0.503165 39.7517 1.0415 41.0469 1.99725 42.0027C2.95301 42.9585 4.24836 43.4969 5.6 43.5H18.8L17.756 44.544C17.5487 44.753 17.4075 45.0183 17.3501 45.3069C17.2925 45.5957 17.3213 45.8948 17.4324 46.1673C17.5437 46.4397 17.7327 46.6736 17.9759 46.8393C18.219 47.0052 18.5057 47.0958 18.8 47.1C18.9969 47.1014 19.1921 47.0628 19.3736 46.9865C19.5552 46.9101 19.7193 46.7978 19.856 46.656L23.456 43.056C23.5956 42.9167 23.7065 42.7511 23.7821 42.5688C23.8577 42.3866 23.8967 42.1913 23.8967 41.994C23.8967 41.7966 23.8577 41.6013 23.7821 41.4191C23.7065 41.2368 23.5956 41.0714 23.456 40.932L19.832 37.344Z" fill="#1D1C1D"/>
<path d="M18.2841 14.0278C17.9099 13.9789 17.5311 14.0764 17.2271 14.3C16.923 14.5236 16.7169 14.856 16.6521 15.2278L16.2561 17.9998H12.7281C12.3462 17.9998 11.9799 18.1515 11.7099 18.4216C11.4398 18.6916 11.2881 19.0579 11.2881 19.4398C11.2881 19.8217 11.4398 20.188 11.7099 20.458C11.9799 20.728 12.3462 20.8798 12.7281 20.8798H15.8361L15.0801 25.9918H11.6001C11.4008 25.9735 11.1998 25.9971 11.01 26.0608C10.8203 26.1246 10.646 26.2272 10.4981 26.3622C10.3503 26.497 10.2321 26.6614 10.1513 26.8446C10.0705 27.0277 10.0288 27.2256 10.0288 27.4258C10.0288 27.6259 10.0705 27.8239 10.1513 28.0071C10.2321 28.1902 10.3503 28.3545 10.4981 28.4895C10.646 28.6243 10.8203 28.7271 11.01 28.7908C11.1998 28.8546 11.4008 28.8781 11.6001 28.8598H14.6241L14.1561 32.3998C14.1041 32.7745 14.2004 33.1548 14.4245 33.4596C14.6486 33.7644 14.9829 33.9697 15.3561 34.0318H15.5721C15.9117 34.0309 16.2401 33.91 16.4993 33.6904C16.7583 33.4708 16.9314 33.1666 16.9881 32.8318L17.6001 28.8598H21.3921L20.8401 32.3998C20.7881 32.7745 20.8844 33.1548 21.1085 33.4596C21.3326 33.7644 21.6669 33.9697 22.0401 34.0318H22.2561C22.5957 34.0309 22.9241 33.91 23.1833 33.6904C23.4423 33.4708 23.6154 33.1666 23.6721 32.8318L24.2481 28.9318H27.2601C27.6177 28.8991 27.9503 28.7338 28.1924 28.4685C28.4346 28.2031 28.5687 27.8569 28.5687 27.4978C28.5687 27.1386 28.4346 26.7924 28.1924 26.5272C27.9503 26.2618 27.6177 26.0965 27.2601 26.0638H24.6801L25.4241 20.9518H28.4001C28.7916 20.9518 29.1669 20.7963 29.4438 20.5195C29.7206 20.2426 29.8762 19.8673 29.8762 19.4758C29.8762 19.0843 29.7206 18.7089 29.4438 18.4321C29.1669 18.1554 28.7916 17.9998 28.4001 17.9998H25.8801L26.2281 15.6598C26.2802 15.2851 26.1839 14.9048 25.9598 14.6C25.7355 14.2952 25.4013 14.0899 25.0281 14.0278C24.6548 13.976 24.276 14.0727 23.973 14.297C23.6702 14.5214 23.4674 14.8556 23.4081 15.2278L22.9401 17.9998H19.1601L19.4961 15.6598C19.551 15.2827 19.4544 14.8993 19.2272 14.5935C19.0001 14.2876 18.6609 14.0842 18.2841 14.0278ZM22.5201 20.8798L21.7761 25.9918H17.9841L18.8001 20.8798H22.5201Z" fill="#1D1C1D"/>
</svg>
