<svg width="49" height="49" viewBox="0 0 49 49" fill="none" xmlns="http://www.w3.org/2000/svg">
<g clip-path="url(#clip0_1_340)">
<path fill-rule="evenodd" clip-rule="evenodd" d="M13.359 12.851C10.3926 15.6925 8.60083 19.3722 8.60083 22.8501V26.8082C10.2576 25.282 12.47 24.35 14.9001 24.35H15.2501C17.5421 24.35 19.4001 26.208 19.4001 28.5V38.8C19.4001 41.092 17.5421 42.95 15.2501 42.95H14.9001C9.76385 42.95 5.6001 38.7862 5.6001 33.65C5.6001 33.6106 5.60034 33.5713 5.60083 33.532V22.8501C5.60083 18.3751 7.86985 13.9548 11.2838 10.6845C14.7085 7.40413 19.4171 5.15015 24.5008 5.15015C29.5845 5.15015 34.2932 7.40413 37.7178 10.6845C41.1318 13.9548 43.4008 18.3751 43.4008 22.8501V33.6066L43.4009 33.65C43.4009 38.7862 39.2372 42.95 34.1009 42.95H33.7509C31.459 42.95 29.6009 41.092 29.6009 38.8V28.5C29.6009 26.208 31.459 24.35 33.7509 24.35H34.1009C36.5313 24.35 38.744 25.2823 40.4008 26.8088V22.8501C40.4008 19.3722 38.609 15.6925 35.6426 12.851C32.6869 10.0197 28.6955 8.15015 24.5008 8.15015C20.3062 8.15015 16.3148 10.0197 13.359 12.851ZM8.6001 33.6501C8.60016 37.1294 11.4207 39.95 14.9001 39.95H15.2501C15.8852 39.95 16.4001 39.4351 16.4001 38.8V28.5C16.4001 27.8649 15.8852 27.35 15.2501 27.35H14.9001C11.4531 27.35 8.65273 30.1183 8.60083 33.5529L8.6001 33.6501ZM40.4008 33.6501V33.6143C40.3816 30.1513 37.5684 27.35 34.1009 27.35H33.7509C33.1158 27.35 32.6009 27.8649 32.6009 28.5V38.8C32.6009 39.4351 33.1158 39.95 33.7509 39.95H34.1009C37.5803 39.95 40.4008 37.1294 40.4008 33.6501Z" fill="#1D1C1D"/>
</g>
<defs>
<clipPath id="clip0_1_340">
<rect width="48" height="48" fill="white" transform="translate(0.5 0.0500488)"/>
</clipPath>
</defs>
</svg>
