<svg width="49" height="49" viewBox="0 0 49 49" fill="none" xmlns="http://www.w3.org/2000/svg">
<g clip-path="url(#clip0_1_351)">
<path d="M42.5001 13.346H30.4161V10.154C30.4161 8.80134 29.8788 7.50414 28.9224 6.5477C27.9659 5.59127 26.6687 5.05396 25.3162 5.05396H6.50015C5.14851 5.05712 3.85314 5.59545 2.8974 6.55121C1.94165 7.50695 1.40331 8.80232 1.40015 10.154V26.0779C1.40015 27.4306 1.93747 28.7278 2.89389 29.6842C3.85034 30.6406 5.14754 31.1779 6.50015 31.1779H8.42015V35.3059C8.41979 35.5924 8.5008 35.873 8.65376 36.1153C8.80673 36.3574 9.02534 36.5512 9.28415 36.6739C9.5462 36.7889 9.83483 36.8296 10.1184 36.7915C10.402 36.7534 10.6697 36.638 10.8921 36.4579L17.2041 31.1779H18.5842V34.3579C18.5842 35.7137 19.1228 37.0139 20.0815 37.9727C21.0401 38.9314 22.3403 39.4699 23.6961 39.4699H31.7962L38.1082 44.7619C38.3824 44.9866 38.7257 45.1096 39.0802 45.1099C39.3002 45.1096 39.5174 45.0604 39.7161 44.9659C39.9731 44.8441 40.1905 44.6522 40.3433 44.4122C40.4962 44.1724 40.5782 43.8943 40.5802 43.6099V39.4699H42.5001C43.8527 39.4699 45.1499 38.9326 46.1065 37.9762C47.0629 37.0198 47.6002 35.7226 47.6002 34.3699V18.4459C47.597 17.0944 47.0586 15.799 46.1028 14.8432C45.1472 13.8875 43.8518 13.3491 42.5001 13.346ZM16.6521 28.1779C16.3024 28.1839 15.9646 28.3063 15.6922 28.5259L11.4201 32.1259V29.7259C11.4201 29.3281 11.2621 28.9466 10.9808 28.6652C10.6995 28.384 10.318 28.2259 9.92015 28.2259H6.50015C5.94318 28.2259 5.40905 28.0046 5.01522 27.6109C4.6214 27.217 4.40015 26.6828 4.40015 26.1259V10.154C4.4033 9.59796 4.62555 9.06566 5.0187 8.67251C5.41185 8.27936 5.94416 8.0571 6.50015 8.05395H25.3162C25.8731 8.05395 26.4073 8.2752 26.801 8.66903C27.1949 9.06285 27.4161 9.59699 27.4161 10.154V26.0659C27.4161 26.3432 27.3616 26.6179 27.2554 26.8742C27.1493 27.1304 26.9936 27.3632 26.7976 27.5593C26.6015 27.7555 26.3685 27.911 26.1124 28.0172C25.8561 28.1233 25.5815 28.1779 25.3041 28.1779H16.6521ZM44.6002 34.3699C44.6002 34.9268 44.3789 35.461 43.985 35.8549C43.5913 36.2486 43.0571 36.4699 42.5001 36.4699H39.0802C38.6824 36.4699 38.3008 36.628 38.0195 36.9092C37.7383 37.1906 37.5802 37.5721 37.5802 37.9699V40.3699L33.3082 36.7699C33.0409 36.5399 32.7006 36.4124 32.3481 36.4099H23.6961C23.136 36.4099 22.5988 36.1874 22.2028 35.7913C21.8066 35.3953 21.5842 34.8581 21.5842 34.2979V31.1779H25.3162C26.6687 31.1779 27.9659 30.6406 28.9224 29.6842C29.8788 28.7278 30.4161 27.4306 30.4161 26.0779V16.3579H42.5001C43.0562 16.361 43.5884 16.5833 43.9815 16.9765C44.3747 17.3696 44.597 17.902 44.6002 18.4579V34.3699Z" fill="#1D1C1D"/>
<path d="M9.66803 16.3219C9.354 16.3289 9.04905 16.4285 8.79137 16.6082C8.53368 16.7878 8.33474 17.0395 8.21943 17.3317C8.10414 17.6239 8.07762 17.9435 8.14322 18.2507C8.2088 18.5579 8.36357 18.8389 8.58815 19.0585C8.81271 19.2781 9.0971 19.4266 9.40568 19.4854C9.71424 19.544 10.0333 19.5104 10.3228 19.3886C10.6124 19.2668 10.8595 19.0624 11.0334 18.8008C11.2072 18.539 11.3 18.232 11.3 17.9179C11.3017 17.7047 11.2604 17.4935 11.1786 17.2967C11.0967 17.0999 10.976 16.9217 10.8236 16.7726C10.6712 16.6237 10.4903 16.507 10.2918 16.4294C10.0932 16.352 9.88106 16.3154 9.66803 16.3219Z" fill="#1D1C1D"/>
<path d="M15.944 16.3219C15.6288 16.3243 15.3215 16.42 15.0606 16.5967C14.7997 16.7736 14.597 17.0236 14.4781 17.3155C14.3591 17.6073 14.3292 17.9278 14.3921 18.2367C14.4551 18.5454 14.608 18.8287 14.8317 19.0507C15.0554 19.2727 15.3398 19.4235 15.6489 19.4841C15.9582 19.5447 16.2785 19.5124 16.5695 19.3914C16.8603 19.2702 17.109 19.0656 17.2838 18.8034C17.4587 18.5412 17.552 18.2331 17.552 17.9179C17.552 17.7073 17.5103 17.4988 17.4293 17.3044C17.3484 17.11 17.2298 16.9335 17.0802 16.7851C16.9308 16.6368 16.7534 16.5195 16.5584 16.44C16.3634 16.3605 16.1546 16.3204 15.944 16.3219Z" fill="#1D1C1D"/>
<path d="M22.2322 19.5139C22.5478 19.5139 22.8565 19.4203 23.1188 19.2449C23.3813 19.0696 23.5859 18.8203 23.7067 18.5287C23.8274 18.2371 23.8591 17.9161 23.7976 17.6065C23.7359 17.2969 23.584 17.0125 23.3608 16.7893C23.1376 16.5661 22.8532 16.4141 22.5436 16.3525C22.234 16.291 21.913 16.3226 21.6214 16.4434C21.3298 16.5641 21.0805 16.7687 20.9051 17.0312C20.7298 17.2936 20.6362 17.6023 20.6362 17.9179C20.6345 18.1279 20.6747 18.3362 20.7544 18.5305C20.834 18.7249 20.9516 18.9014 21.1001 19.0499C21.2486 19.1984 21.4252 19.316 21.6196 19.3957C21.8138 19.4753 22.0222 19.5155 22.2322 19.5139Z" fill="#1D1C1D"/>
</g>
<defs>
<clipPath id="clip0_1_351">
<rect width="48" height="48" fill="white" transform="translate(0.5 0.0500488)"/>
</clipPath>
</defs>
</svg>
