<svg width="21" height="20" viewBox="0 0 21 20" fill="none" xmlns="http://www.w3.org/2000/svg">
<g clip-path="url(#clip0_3_348)">
<path fill-rule="evenodd" clip-rule="evenodd" d="M13.4242 12.5C14.5125 12.5 15.4392 13.1958 15.7825 14.1667H16.7575C16.9785 14.1667 17.1905 14.2545 17.3467 14.4107C17.503 14.567 17.5908 14.779 17.5908 15C17.5908 15.221 17.503 15.433 17.3467 15.5893C17.1905 15.7455 16.9785 15.8333 16.7575 15.8333H15.7825C15.6103 16.3213 15.291 16.7438 14.8687 17.0427C14.4463 17.3415 13.9416 17.502 13.4242 17.502C12.9067 17.502 12.402 17.3415 11.9797 17.0427C11.5573 16.7438 11.238 16.3213 11.0658 15.8333H3.42415C3.20314 15.8333 2.99118 15.7455 2.8349 15.5893C2.67862 15.433 2.59082 15.221 2.59082 15C2.59082 14.779 2.67862 14.567 2.8349 14.4107C2.99118 14.2545 3.20314 14.1667 3.42415 14.1667H11.0658C11.2383 13.6791 11.5578 13.257 11.9801 12.9585C12.4025 12.66 12.907 12.4999 13.4242 12.5ZM13.4242 14.1667C13.2031 14.1667 12.9912 14.2545 12.8349 14.4107C12.6786 14.567 12.5908 14.779 12.5908 15C12.5908 15.221 12.6786 15.433 12.8349 15.5893C12.9912 15.7455 13.2031 15.8333 13.4242 15.8333C13.6452 15.8333 13.8571 15.7455 14.0134 15.5893C14.1697 15.433 14.2575 15.221 14.2575 15C14.2575 14.779 14.1697 14.567 14.0134 14.4107C13.8571 14.2545 13.6452 14.1667 13.4242 14.1667ZM6.75749 7.5C7.24831 7.49993 7.7283 7.64435 8.1376 7.91524C8.5469 8.18613 8.8674 8.57151 9.05915 9.02333L9.11499 9.16667H16.7575C16.9699 9.1669 17.1742 9.24823 17.3286 9.39404C17.4831 9.53985 17.576 9.73913 17.5885 9.95116C17.6009 10.1632 17.5319 10.372 17.3956 10.5349C17.2593 10.6977 17.0659 10.8024 16.855 10.8275L16.7575 10.8333H9.11582C8.94782 11.3086 8.64013 11.722 8.2331 12.0193C7.82606 12.3166 7.33868 12.484 6.83486 12.4995C6.33104 12.515 5.8343 12.3779 5.40976 12.1061C4.98522 11.8344 4.65271 11.4407 4.45582 10.9767L4.39915 10.8333H3.42415C3.21175 10.8331 3.00746 10.7518 2.85301 10.606C2.69857 10.4602 2.60562 10.2609 2.59318 10.0488C2.58073 9.8368 2.64972 9.62802 2.78604 9.46514C2.92237 9.30226 3.11574 9.19759 3.32665 9.1725L3.42415 9.16667H4.39915C4.57166 8.6791 4.89109 8.25702 5.31344 7.95853C5.7358 7.66005 6.24031 7.49985 6.75749 7.5ZM6.75749 9.16667C6.53647 9.16667 6.32451 9.25446 6.16823 9.41074C6.01195 9.56702 5.92415 9.77899 5.92415 10C5.92415 10.221 6.01195 10.433 6.16823 10.5893C6.32451 10.7455 6.53647 10.8333 6.75749 10.8333C6.9785 10.8333 7.19046 10.7455 7.34674 10.5893C7.50302 10.433 7.59082 10.221 7.59082 10C7.59082 9.77899 7.50302 9.56702 7.34674 9.41074C7.19046 9.25446 6.9785 9.16667 6.75749 9.16667ZM13.4242 2.5C14.5125 2.5 15.4392 3.19583 15.7825 4.16667H16.7575C16.9785 4.16667 17.1905 4.25446 17.3467 4.41074C17.503 4.56702 17.5908 4.77899 17.5908 5C17.5908 5.22101 17.503 5.43298 17.3467 5.58926C17.1905 5.74554 16.9785 5.83333 16.7575 5.83333H15.7825C15.6103 6.32128 15.291 6.74381 14.8687 7.04268C14.4463 7.34155 13.9416 7.50204 13.4242 7.50204C12.9067 7.50204 12.402 7.34155 11.9797 7.04268C11.5573 6.74381 11.238 6.32128 11.0658 5.83333H3.42415C3.20314 5.83333 2.99118 5.74554 2.8349 5.58926C2.67862 5.43298 2.59082 5.22101 2.59082 5C2.59082 4.77899 2.67862 4.56702 2.8349 4.41074C2.99118 4.25446 3.20314 4.16667 3.42415 4.16667H11.0658C11.2383 3.6791 11.5578 3.25702 11.9801 2.95853C12.4025 2.66005 12.907 2.49985 13.4242 2.5ZM13.4242 4.16667C13.2031 4.16667 12.9912 4.25446 12.8349 4.41074C12.6786 4.56702 12.5908 4.77899 12.5908 5C12.5908 5.22101 12.6786 5.43298 12.8349 5.58926C12.9912 5.74554 13.2031 5.83333 13.4242 5.83333C13.6452 5.83333 13.8571 5.74554 14.0134 5.58926C14.1697 5.43298 14.2575 5.22101 14.2575 5C14.2575 4.77899 14.1697 4.56702 14.0134 4.41074C13.8571 4.25446 13.6452 4.16667 13.4242 4.16667Z" fill="white"/>
</g>
<defs>
<clipPath id="clip0_3_348">
<rect width="20" height="20" fill="white" transform="translate(0.0908203)"/>
</clipPath>
</defs>
</svg>
